<!--?xml version="1.0" standalone="no"?-->
              <svg id="sw-js-blob-svg" viewBox="0 0 100 100" xmlns="http://www.w3.org/2000/svg" version="1.1">
                    <defs> 
                        <linearGradient id="sw-gradient" x1="0" x2="1" y1="1" y2="0">
                            <stop id="stop1" stop-color="rgba(248, 117, 55, 1)" offset="0%"></stop>
                            <stop id="stop2" stop-color="rgba(251, 168, 31, 1)" offset="100%"></stop>
                        </linearGradient>
                    </defs>
                <path fill="url(#sw-gradient)" d="M21.1,-23.1C28.2,-19.2,35.4,-13.3,38.7,-5.2C42.1,2.9,41.6,13.3,36.3,19.7C31.1,26,21.1,28.3,11.5,32.1C1.8,35.9,-7.5,41.1,-13.8,38.5C-20.1,36,-23.4,25.7,-28.3,16.6C-33.2,7.5,-39.8,-0.3,-39.8,-8.1C-39.7,-15.9,-33,-23.6,-25.3,-27.5C-17.6,-31.4,-8.8,-31.3,-0.9,-30.3C7,-29.2,14,-27.1,21.1,-23.1Z" width="100%" height="100%" transform="translate(50 50)" stroke-width="0" style="transition: all 0.3s ease 0s;"></path>
              </svg>