<!--?xml version="1.0" standalone="no"?-->
              <svg id="sw-js-blob-svg" viewBox="0 0 100 100" xmlns="http://www.w3.org/2000/svg" version="1.1">
                    <defs> 
                        <linearGradient id="sw-gradient" x1="0" x2="1" y1="1" y2="0">
                            <stop id="stop1" stop-color="rgba(248, 117, 55, 1)" offset="0%"></stop>
                            <stop id="stop2" stop-color="rgba(251, 168, 31, 1)" offset="100%"></stop>
                        </linearGradient>
                    </defs>
                <path fill="url(#sw-gradient)" d="M20.5,-23.2C28.1,-18.2,36.6,-13.1,38.5,-6.2C40.4,0.7,35.7,9.3,30.6,17.1C25.4,24.8,19.7,31.7,12.8,33.4C5.9,35.2,-2.2,31.8,-9.5,28.2C-16.8,24.7,-23.4,21,-29.5,14.8C-35.6,8.7,-41.3,0.2,-39.3,-6.2C-37.3,-12.7,-27.7,-17.2,-19.9,-22.1C-12.1,-27.1,-6,-32.6,0.2,-32.8C6.5,-33.1,13,-28.2,20.5,-23.2Z" width="100%" height="100%" transform="translate(50 50)" stroke-width="0" style="transition: all 0.3s ease 0s;"></path>
              </svg>