<!--?xml version="1.0" standalone="no"?-->
              <svg id="sw-js-blob-svg" viewBox="0 0 100 100" xmlns="http://www.w3.org/2000/svg" version="1.1">
                    <defs> 
                        <linearGradient id="sw-gradient" x1="0" x2="1" y1="1" y2="0">
                            <stop id="stop1" stop-color="rgba(248, 117, 55, 1)" offset="0%"></stop>
                            <stop id="stop2" stop-color="rgba(251, 168, 31, 1)" offset="100%"></stop>
                        </linearGradient>
                    </defs>
                <path fill="url(#sw-gradient)" d="M28.4,-31.5C36,-27.5,40.9,-17.8,41.9,-8C43,1.9,40.3,11.8,35,19.6C29.7,27.4,21.9,33.1,13.1,36.4C4.3,39.8,-5.4,40.8,-12.6,37.1C-19.7,33.4,-24.2,25,-28.9,16.8C-33.5,8.5,-38.2,0.5,-37.6,-7.3C-37,-15,-31.1,-22.5,-23.9,-26.6C-16.8,-30.8,-8.4,-31.6,1,-32.8C10.4,-34,20.8,-35.6,28.4,-31.5Z" width="100%" height="100%" transform="translate(50 50)" stroke-width="0" style="transition: all 0.3s ease 0s;"></path>
              </svg>