<!--?xml version="1.0" standalone="no"?-->
              <svg id="sw-js-blob-svg" viewBox="0 0 100 100" xmlns="http://www.w3.org/2000/svg" version="1.1">
                    <defs> 
                        <linearGradient id="sw-gradient" x1="0" x2="1" y1="1" y2="0">
                            <stop id="stop1" stop-color="rgba(86.229, 78.752, 75.214, 1)" offset="0%"></stop>
                            <stop id="stop2" stop-color="rgba(34.413, 31.474, 26.623, 1)" offset="100%"></stop>
                        </linearGradient>
                    </defs>
                <path fill="url(#sw-gradient)" d="M20.8,-26.1C27.9,-23.4,35.4,-18.7,39.6,-11.5C43.9,-4.3,45,5.3,39.9,10.4C34.7,15.5,23.4,16,15.7,19.1C8,22.2,4,27.9,-2.8,31.7C-9.5,35.5,-19.1,37.4,-25.7,34C-32.3,30.5,-35.9,21.7,-33.9,14.2C-31.9,6.8,-24.2,0.7,-22,-7.6C-19.9,-15.8,-23.3,-26.4,-20.6,-30.5C-17.9,-34.7,-8.9,-32.5,-1.1,-31C6.8,-29.6,13.6,-28.9,20.8,-26.1Z" width="100%" height="100%" transform="translate(50 50)" stroke-width="0" style="transition: all 0.3s ease 0s;" stroke="url(#sw-gradient)"></path>
              </svg>